<svg xmlns="http://www.w3.org/2000/svg" width="1600" height="900" viewBox="0 0 1600 900" shape-rendering="crispEdges">
  <rect width="1600" height="900" fill="#030304"/>

  <g>
    <rect x="0" y="0" width="1600" height="148" fill="#071014"/>
    <rect x="0" y="148" width="1600" height="196" fill="#100b0e"/>
    <rect x="0" y="344" width="1600" height="160" fill="#160d0c"/>
    <rect x="0" y="504" width="1600" height="396" fill="#050403"/>
  </g>

  <g opacity=".36">
    <rect x="272" y="180" width="192" height="192" fill="#5a1418"/>
    <rect x="304" y="148" width="128" height="32" fill="#f0a24f"/>
    <rect x="304" y="372" width="128" height="32" fill="#220908"/>
    <rect x="336" y="212" width="64" height="96" fill="#ffd77a"/>

    <rect x="704" y="102" width="192" height="224" fill="#6a1619"/>
    <rect x="736" y="70" width="128" height="32" fill="#ffbb5b"/>
    <rect x="736" y="326" width="128" height="32" fill="#220908"/>
    <rect x="768" y="142" width="64" height="120" fill="#ffe09b"/>

    <rect x="1136" y="180" width="192" height="192" fill="#5a1418"/>
    <rect x="1168" y="148" width="128" height="32" fill="#f0a24f"/>
    <rect x="1168" y="372" width="128" height="32" fill="#220908"/>
    <rect x="1200" y="212" width="64" height="96" fill="#ffd77a"/>
  </g>

  <g fill="#130b08">
    <rect x="104" y="126" width="1392" height="72"/>
    <rect x="168" y="198" width="1264" height="48"/>
    <rect x="248" y="246" width="1104" height="48"/>
  </g>
  <g fill="#4d2f1b">
    <rect x="104" y="126" width="1392" height="16"/>
    <rect x="168" y="198" width="1264" height="16"/>
    <rect x="248" y="246" width="1104" height="16"/>
  </g>
  <g fill="#050303">
    <rect x="104" y="182" width="1392" height="16"/>
    <rect x="168" y="230" width="1264" height="16"/>
    <rect x="248" y="278" width="1104" height="16"/>
  </g>

  <g>
    <rect x="176" y="286" width="96" height="364" fill="#2b1710"/>
    <rect x="208" y="286" width="24" height="364" fill="#6b3f24"/>
    <rect x="176" y="286" width="96" height="24" fill="#b27a42"/>
    <rect x="176" y="626" width="96" height="24" fill="#0a0503"/>

    <rect x="432" y="318" width="80" height="292" fill="#22130e"/>
    <rect x="456" y="318" width="16" height="292" fill="#5a3720"/>
    <rect x="432" y="318" width="80" height="16" fill="#936338"/>

    <rect x="1088" y="318" width="80" height="292" fill="#22130e"/>
    <rect x="1112" y="318" width="16" height="292" fill="#5a3720"/>
    <rect x="1088" y="318" width="80" height="16" fill="#936338"/>

    <rect x="1328" y="286" width="96" height="364" fill="#2b1710"/>
    <rect x="1360" y="286" width="24" height="364" fill="#6b3f24"/>
    <rect x="1328" y="286" width="96" height="24" fill="#b27a42"/>
    <rect x="1328" y="626" width="96" height="24" fill="#0a0503"/>
  </g>

  <g>
    <rect x="0" y="640" width="1600" height="260" fill="#100908"/>
    <rect x="0" y="640" width="1600" height="24" fill="#624020"/>
    <rect x="0" y="720" width="1600" height="16" fill="#302014"/>
    <rect x="0" y="800" width="1600" height="16" fill="#2a1b11"/>
    <rect x="0" y="880" width="1600" height="20" fill="#030202"/>
    <rect x="768" y="486" width="64" height="414" fill="#2a1a10"/>
    <rect x="704" y="526" width="192" height="374" fill="#15100c"/>
    <rect x="640" y="578" width="320" height="322" fill="#0a0807"/>
  </g>

  <g opacity=".38" fill="#d7a756">
    <rect x="0" y="688" width="1600" height="8"/>
    <rect x="0" y="760" width="1600" height="8"/>
    <rect x="0" y="840" width="1600" height="8"/>
    <rect x="720" y="526" width="160" height="8"/>
    <rect x="664" y="578" width="272" height="8"/>
  </g>

  <g opacity=".24" fill="#000000">
    <rect x="0" y="664" width="1600" height="24"/>
    <rect x="0" y="736" width="1600" height="24"/>
    <rect x="0" y="816" width="1600" height="24"/>
    <rect x="896" y="526" width="64" height="374"/>
    <rect x="832" y="486" width="64" height="414"/>
  </g>

  <g fill="#6ee0b4" opacity=".12">
    <rect x="560" y="352" width="480" height="88"/>
    <rect x="608" y="376" width="384" height="40"/>
  </g>

  <g fill="#ffd77a" opacity=".45">
    <rect x="336" y="212" width="64" height="16"/>
    <rect x="768" y="142" width="64" height="16"/>
    <rect x="1200" y="212" width="64" height="16"/>
  </g>
</svg>
