<svg xmlns="http://www.w3.org/2000/svg" width="1600" height="900" viewBox="0 0 1600 900">
  <defs>
    <linearGradient id="hall" x1="0" y1="0" x2="0" y2="1">
      <stop offset="0" stop-color="#091313"/>
      <stop offset=".45" stop-color="#150c0c"/>
      <stop offset="1" stop-color="#040303"/>
    </linearGradient>
    <radialGradient id="lamp" cx="50%" cy="38%" r="58%">
      <stop offset="0" stop-color="#ffe09b"/>
      <stop offset=".36" stop-color="#e55538"/>
      <stop offset="1" stop-color="#4b090a" stop-opacity="0"/>
    </radialGradient>
    <linearGradient id="floor" x1="0" y1="0" x2="0" y2="1">
      <stop offset="0" stop-color="#241011"/>
      <stop offset="1" stop-color="#070505"/>
    </linearGradient>
  </defs>
  <rect width="1600" height="900" fill="url(#hall)"/>
  <path d="M0 610 L800 405 L1600 610 L1600 900 L0 900 Z" fill="url(#floor)"/>
  <g stroke="#d9a94f" stroke-opacity=".16" stroke-width="2" fill="none">
    <path d="M800 405v495M602 455L470 900M998 455l132 445M430 500L220 900M1170 500l210 400"/>
    <path d="M0 700h1600M0 798h1600"/>
  </g>
  <g fill="#130808">
    <path d="M130 115h1340v78H130z"/>
    <path d="M190 192h1220v48H190z"/>
    <path d="M260 238h1080v44H260z"/>
  </g>
  <g fill="#6b181b">
    <rect x="210" y="240" width="72" height="402"/>
    <rect x="1318" y="240" width="72" height="402"/>
    <rect x="436" y="282" width="58" height="296"/>
    <rect x="1106" y="282" width="58" height="296"/>
  </g>
  <g opacity=".62">
    <circle cx="365" cy="310" r="118" fill="url(#lamp)"/>
    <circle cx="800" cy="250" r="150" fill="url(#lamp)"/>
    <circle cx="1235" cy="310" r="118" fill="url(#lamp)"/>
  </g>
  <g fill="#b92c2a" stroke="#ffd77a" stroke-opacity=".45" stroke-width="3">
    <path d="M322 245h86l22 54l-22 70h-86l-22-70z"/>
    <path d="M748 166h104l28 72l-28 92H748l-28-92z"/>
    <path d="M1192 245h86l22 54l-22 70h-86l-22-70z"/>
  </g>
  <g stroke="#ffd77a" stroke-opacity=".34" stroke-width="2">
    <path d="M365 210v-72M800 118V55M1235 210v-72"/>
    <path d="M322 300h86M748 238h104M1192 300h86"/>
  </g>
  <g fill="#4fd0a0" opacity=".12">
    <path d="M565 342h470v86H565z"/>
    <path d="M610 362h380v46H610z"/>
  </g>
</svg>
