<svg xmlns="http://www.w3.org/2000/svg" width="1600" height="900" viewBox="0 0 1600 900" shape-rendering="crispEdges">
  <rect width="1600" height="900" fill="#03040a"/>

  <g opacity=".95">
    <rect x="0" y="0" width="1600" height="160" fill="#060816"/>
    <rect x="0" y="160" width="1600" height="160" fill="#080719"/>
    <rect x="0" y="320" width="1600" height="220" fill="#0b0915"/>
    <rect x="0" y="540" width="1600" height="360" fill="#050406"/>
  </g>

  <g opacity=".18" fill="#d8a755">
    <rect x="112" y="96" width="8" height="8"/>
    <rect x="286" y="64" width="8" height="8"/>
    <rect x="486" y="122" width="8" height="8"/>
    <rect x="1014" y="86" width="8" height="8"/>
    <rect x="1338" y="118" width="8" height="8"/>
    <rect x="1452" y="72" width="8" height="8"/>
  </g>

  <g>
    <rect x="688" y="132" width="224" height="224" fill="#312019"/>
    <rect x="720" y="100" width="160" height="32" fill="#4b3520"/>
    <rect x="720" y="356" width="160" height="32" fill="#100b0a"/>
    <rect x="656" y="164" width="32" height="160" fill="#1b1210"/>
    <rect x="912" y="164" width="32" height="160" fill="#1b1210"/>
    <rect x="704" y="148" width="192" height="192" fill="#d8a755" opacity=".18"/>
    <rect x="736" y="164" width="128" height="128" fill="#ffdf95" opacity=".32"/>
    <rect x="768" y="196" width="64" height="64" fill="#ffe7af" opacity=".36"/>
  </g>

  <g fill="#130d0a">
    <rect x="0" y="600" width="1600" height="300"/>
    <rect x="0" y="560" width="256" height="40"/>
    <rect x="1344" y="520" width="256" height="80"/>
    <rect x="144" y="520" width="256" height="40"/>
    <rect x="1104" y="496" width="288" height="64"/>
  </g>
  <g fill="#2d2017">
    <rect x="0" y="608" width="1600" height="24"/>
    <rect x="0" y="688" width="1600" height="16"/>
    <rect x="0" y="784" width="1600" height="16"/>
  </g>
  <g fill="#080606">
    <rect x="0" y="632" width="1600" height="16"/>
    <rect x="0" y="704" width="1600" height="16"/>
    <rect x="0" y="800" width="1600" height="16"/>
  </g>

  <g transform="translate(184 226)">
    <rect x="0" y="376" width="1232" height="72" fill="#1b120c"/>
    <rect x="40" y="336" width="1152" height="40" fill="#6c4726"/>
    <rect x="40" y="376" width="1152" height="16" fill="#1a100b"/>
    <rect x="96" y="288" width="1040" height="48" fill="#8a6134"/>
    <rect x="144" y="248" width="944" height="40" fill="#382213"/>
    <rect x="192" y="208" width="848" height="40" fill="#9a6d3b"/>
    <rect x="240" y="168" width="752" height="40" fill="#422916"/>
    <rect x="320" y="120" width="592" height="48" fill="#a87a43"/>
    <rect x="384" y="80" width="464" height="40" fill="#4e321b"/>
    <rect x="448" y="40" width="336" height="40" fill="#b98748"/>

    <g fill="#c99a55">
      <rect x="32" y="320" width="112" height="16"/>
      <rect x="1088" y="320" width="112" height="16"/>
      <rect x="184" y="240" width="88" height="16"/>
      <rect x="960" y="240" width="88" height="16"/>
      <rect x="416" y="72" width="56" height="16"/>
      <rect x="760" y="72" width="56" height="16"/>
    </g>
    <g fill="#21140d">
      <rect x="1072" y="288" width="64" height="48"/>
      <rect x="1024" y="208" width="64" height="40"/>
      <rect x="848" y="120" width="64" height="48"/>
      <rect x="784" y="40" width="64" height="40"/>
      <rect x="1120" y="376" width="72" height="72"/>
    </g>

    <g>
      <rect x="224" y="256" width="88" height="192" fill="#2a190f"/>
      <rect x="264" y="256" width="16" height="192" fill="#604122"/>
      <rect x="224" y="256" width="88" height="16" fill="#b17d41"/>
      <rect x="920" y="256" width="88" height="192" fill="#2a190f"/>
      <rect x="960" y="256" width="16" height="192" fill="#604122"/>
      <rect x="920" y="256" width="88" height="16" fill="#b17d41"/>
    </g>

    <g>
      <rect x="384" y="248" width="464" height="200" fill="#070507"/>
      <rect x="416" y="280" width="400" height="168" fill="#0d0711"/>
      <rect x="464" y="312" width="304" height="136" fill="#030305"/>
      <rect x="416" y="280" width="400" height="16" fill="#d8a755" opacity=".32"/>
      <rect x="416" y="280" width="16" height="168" fill="#d8a755" opacity=".18"/>
      <rect x="800" y="280" width="16" height="168" fill="#000000" opacity=".44"/>
      <rect x="464" y="312" width="304" height="16" fill="#a87340" opacity=".32"/>
    </g>
  </g>

  <g opacity=".45">
    <rect x="120" y="652" width="96" height="16" fill="#6e4b2d"/>
    <rect x="248" y="716" width="128" height="16" fill="#3a2719"/>
    <rect x="1184" y="648" width="136" height="16" fill="#6e4b2d"/>
    <rect x="1360" y="744" width="112" height="16" fill="#3a2719"/>
    <rect x="496" y="808" width="96" height="16" fill="#5e3e24"/>
  </g>

  <g>
    <rect x="248" y="464" width="40" height="72" fill="#5b2118"/>
    <rect x="256" y="424" width="24" height="40" fill="#ffd77a"/>
    <rect x="256" y="464" width="24" height="72" fill="#1a0c08"/>
    <rect x="1312" y="424" width="40" height="72" fill="#5b2118"/>
    <rect x="1320" y="384" width="24" height="40" fill="#ffd77a"/>
    <rect x="1320" y="424" width="24" height="72" fill="#1a0c08"/>
  </g>

  <rect x="0" y="0" width="1600" height="24" fill="#000000" opacity=".28"/>
  <rect x="0" y="876" width="1600" height="24" fill="#000000" opacity=".42"/>
</svg>
